<svg width="24" height="24" viewBox="0 0 24 24" fill="none" xmlns="http://www.w3.org/2000/svg">
<path d="M20.9996 22.5001H16.4996C16.1019 22.4997 15.7206 22.3415 15.4394 22.0603C15.1582 21.7791 15 21.3978 14.9996 21.0001V16.5001C15 16.1024 15.1582 15.7211 15.4394 15.4398C15.7206 15.1586 16.1019 15.0005 16.4996 15.0001H20.9996C21.3973 15.0005 21.7786 15.1586 22.0598 15.4398C22.341 15.7211 22.4992 16.1024 22.4996 16.5001V21.0001C22.4992 21.3978 22.341 21.7791 22.0598 22.0603C21.7786 22.3415 21.3973 22.4997 20.9996 22.5001ZM16.4996 16.5001V21.0001H20.9996V16.5001H16.4996ZM13.4996 19.5001H8.99959C8.40304 19.4995 7.83109 19.2622 7.40926 18.8404C6.98743 18.4186 6.75019 17.8466 6.74959 17.2501V14.2501H8.24959V17.2501C8.24979 17.4489 8.32887 17.6396 8.46948 17.7802C8.61009 17.9208 8.80074 17.9999 8.99959 18.0001H13.4996V19.5001ZM19.4996 13.5001H17.9996V11.2501C17.9994 11.0512 17.9203 10.8606 17.7797 10.7199C17.6391 10.5793 17.4484 10.5003 17.2496 10.5001H13.4996V9.00005H17.2496C17.8461 9.00065 18.4181 9.23789 18.8399 9.65972C19.2618 10.0815 19.499 10.6535 19.4996 11.2501V13.5001ZM11.2496 13.5001C11.1188 13.5001 10.9903 13.466 10.8768 13.4011L7.49959 11.4661L4.12234 13.4011C3.99568 13.4736 3.8506 13.5076 3.7049 13.4989C3.5592 13.4902 3.4192 13.4391 3.30208 13.352C3.18496 13.2649 3.0958 13.1455 3.04553 13.0085C2.99526 12.8715 2.98608 12.7227 3.01909 12.5806L3.81484 9.15155L1.70134 6.88655C1.60897 6.78744 1.54517 6.66515 1.51672 6.53268C1.48827 6.40021 1.49624 6.26251 1.53978 6.13421C1.58331 6.0059 1.66079 5.89179 1.76398 5.80399C1.86718 5.71619 1.99222 5.65798 2.12584 5.63555L5.27584 5.10905L6.82534 1.92155C6.88629 1.79643 6.98086 1.69074 7.09845 1.6163C7.21605 1.54185 7.35204 1.5016 7.49121 1.50005C7.63038 1.49849 7.76724 1.53569 7.88647 1.60748C8.0057 1.67927 8.10261 1.78283 8.16634 1.90655L9.81934 5.10905L12.8771 5.63555C13.0104 5.65853 13.135 5.71714 13.2377 5.80516C13.3404 5.89318 13.4174 6.00735 13.4606 6.13557C13.5037 6.26378 13.5113 6.40128 13.4827 6.53348C13.454 6.66569 13.3902 6.78769 13.2978 6.88655L11.1843 9.15155L11.9793 12.5806C12.0048 12.6905 12.0052 12.8047 11.9804 12.9148C11.9557 13.0249 11.9064 13.1279 11.8362 13.2163C11.7661 13.3047 11.6769 13.3761 11.5753 13.4252C11.4738 13.4743 11.3624 13.4999 11.2496 13.5001ZM7.49959 9.75005C7.49959 9.75005 7.75684 9.88505 7.87234 9.9518L10.1298 11.2448L9.54184 8.71205L11.2533 6.8783L8.82859 6.46055L7.51984 3.92405L6.28684 6.46055L3.75109 6.8843L5.45659 8.71205L4.86859 11.2448L7.12609 9.9518C7.24309 9.88505 7.49959 9.75005 7.49959 9.75005Z" fill="#EF2B2D"/>
</svg>
