<svg width="24" height="24" viewBox="0 0 24 24" fill="none" xmlns="http://www.w3.org/2000/svg">
<g clip-path="url(#clip0_169_596)">
<path d="M12.0003 23.1429C18.1543 23.1429 23.1431 18.1541 23.1431 12C23.1431 5.846 18.1543 0.857178 12.0003 0.857178C5.84625 0.857178 0.857422 5.846 0.857422 12C0.857422 18.1541 5.84625 23.1429 12.0003 23.1429Z" stroke="#EF2B2D" stroke-width="1.71429" stroke-linecap="round" stroke-linejoin="round"/>
<path d="M21.3941 6H14.537C13.6277 6 12.7556 6.36122 12.1126 7.00421C11.4696 7.64719 11.1084 8.51926 11.1084 9.42857C11.1084 10.3379 11.4696 11.21 12.1126 11.8529C12.7556 12.4959 13.6277 12.8571 14.537 12.8571C14.9917 12.8571 15.4277 13.0378 15.7492 13.3592C16.0707 13.6807 16.2513 14.1168 16.2513 14.5714V22.2857M0.994141 13.7143H5.14271C6.05203 13.7143 6.9241 14.0755 7.56708 14.7185C8.21006 15.3615 8.57128 16.2335 8.57128 17.1429V22.6114" stroke="#EF2B2D" stroke-width="1.71429" stroke-linecap="round" stroke-linejoin="round"/>
</g>
<defs>
<clipPath id="clip0_169_596">
<rect width="24" height="24" fill="white"/>
</clipPath>
</defs>
</svg>
