<svg width="24" height="24" viewBox="0 0 24 24" fill="none" xmlns="http://www.w3.org/2000/svg">
<g clip-path="url(#clip0_177_702)">
<path d="M10.6174 13.8371C11.4714 13.8371 12.2904 13.4978 12.8943 12.8939M10.6174 13.8371C9.76342 13.8371 8.94441 13.4978 8.34054 12.8939M10.6174 13.8371V16.2521M12.8943 12.8939C13.4982 12.2901 13.8374 11.4711 13.8374 10.6171M12.8943 12.8939L14.6014 14.6011M13.8374 10.6171C13.8374 9.76306 13.4982 8.94404 12.8943 8.34017M13.8374 10.6171H16.2524M12.8943 8.34017C12.2904 7.73631 11.4714 7.39706 10.6174 7.39706M12.8943 8.34017L14.6014 6.63306M10.6174 7.39706C9.76342 7.39706 8.94441 7.73631 8.34054 8.34017M10.6174 7.39706V4.98206M8.34054 8.34017C7.73667 8.94404 7.39742 9.76306 7.39742 10.6171M8.34054 8.34017L6.63342 6.63306M7.39742 10.6171C7.39742 11.4711 7.73667 12.2901 8.34054 12.8939M7.39742 10.6171H4.98242M8.34054 12.8939L6.63342 14.6011M10.0804 4.98206H11.1544M14.2224 6.25306L14.9814 7.01306M16.2524 10.0801V11.1541M14.9814 14.2221L14.2224 14.9811M11.1544 16.2521H10.0804M7.01242 14.9811L6.25342 14.2221M4.98242 11.1541V10.0801M6.25342 7.01206L7.01242 6.25306" stroke="#EF2B2D" stroke-width="1.5" stroke-linecap="round" stroke-linejoin="round"/>
<path d="M23.25 23.25L17.594 17.594M10.617 20.484C16.067 20.484 20.484 16.066 20.484 10.617C20.484 5.167 16.066 0.75 10.617 0.75C5.167 0.75 0.75 5.168 0.75 10.617C0.75 16.067 5.168 20.484 10.617 20.484Z" stroke="#EF2B2D" stroke-width="1.5" stroke-linecap="round" stroke-linejoin="round"/>
</g>
<defs>
<clipPath id="clip0_177_702">
<rect width="24" height="24" fill="white"/>
</clipPath>
</defs>
</svg>
